<svg width="119" height="119" viewBox="0 0 119 119" fill="none" xmlns="http://www.w3.org/2000/svg">
    <path d="M59.5 117.141C91.334 117.141 117.141 91.334 117.141 59.5C117.141 27.666 91.334 1.85938 59.5 1.85938C27.666 1.85938 1.85938 27.666 1.85938 59.5C1.85938 91.334 27.666 117.141 59.5 117.141Z" fill="#EFF2FA"/>
    <path d="M59.5 59.5L15.8681 34.3064C20.2911 26.6548 26.6548 20.2911 34.3064 15.8683L59.5 59.5Z" fill="#FFE669"/>
    <path d="M59.5 9.11258V59.5L34.3064 15.8682C41.7151 11.5574 50.3184 9.11258 59.5 9.11258Z" fill="#FFCD64"/>
    <path d="M84.6936 15.8682L59.5 59.5V9.11258C68.6816 9.11258 77.2849 11.5574 84.6936 15.8682Z" fill="#FFAA64"/>
    <path d="M103.132 34.3064L59.5 59.5L84.6936 15.8681C92.3452 20.2911 98.7089 26.6548 103.132 34.3064Z" fill="#FF8C64"/>
    <path d="M109.887 59.5H59.5L103.132 34.3064C107.443 41.7149 109.887 50.3182 109.887 59.5Z" fill="#FF6469"/>
    <path d="M109.887 59.5C109.887 68.6816 107.443 77.2849 103.132 84.6936L59.5 59.5H109.887Z" fill="#E18CAF"/>
    <path d="M103.132 84.6936C98.7089 92.3449 92.3452 98.7089 84.6936 103.132L59.5 59.5L103.132 84.6936Z" fill="#C3B4FA"/>
    <path d="M84.6936 103.132C77.2849 107.443 68.6816 109.887 59.5 109.887V59.5L84.6936 103.132Z" fill="#7DD2F0"/>
    <path d="M59.5 59.5V109.887C50.3184 109.887 41.7151 107.443 34.3064 103.132L59.5 59.5Z" fill="#7DE6C3"/>
    <path d="M59.5 59.5L34.3064 103.132C26.6551 98.7091 20.2914 92.3452 15.8681 84.6938L59.5 59.5Z" fill="#96E393"/>
    <path d="M59.5 59.5L15.8682 84.6936C11.5572 77.2849 9.11259 68.6816 9.11259 59.5H59.5Z" fill="#AFE164"/>
    <path d="M59.5 59.5H9.11259C9.11259 50.3182 11.5572 41.7149 15.8682 34.3064L59.5 59.5Z" fill="#D7E664"/>
    <path d="M100.778 73.5425C102.425 73.5425 103.76 72.2076 103.76 70.561C103.76 68.9143 102.425 67.5795 100.778 67.5795C99.1315 67.5795 97.7966 68.9143 97.7966 70.561C97.7966 72.2076 99.1315 73.5425 100.778 73.5425Z" fill="white"/>
    <path d="M18.2219 51.4206C19.8685 51.4206 21.2034 50.0857 21.2034 48.4391C21.2034 46.7924 19.8685 45.4576 18.2219 45.4576C16.5752 45.4576 15.2404 46.7924 15.2404 48.4391C15.2404 50.0857 16.5752 51.4206 18.2219 51.4206Z" fill="white"/>
    <path d="M70.5609 21.2032C72.2075 21.2032 73.5422 19.8685 73.5422 18.2219C73.5422 16.5754 72.2075 15.2407 70.5609 15.2407C68.9144 15.2407 67.5797 16.5754 67.5797 18.2219C67.5797 19.8685 68.9144 21.2032 70.5609 21.2032Z" fill="white"/>
    <path d="M48.4391 103.76C50.0857 103.76 51.4206 102.425 51.4206 100.778C51.4206 99.1315 50.0857 97.7966 48.4391 97.7966C46.7924 97.7966 45.4576 99.1315 45.4576 100.778C45.4576 102.425 46.7924 103.76 48.4391 103.76Z" fill="white"/>
    <path d="M89.7172 92.6987C91.3638 92.6987 92.6987 91.3638 92.6987 89.7172C92.6987 88.0706 91.3638 86.7357 89.7172 86.7357C88.0705 86.7357 86.7357 88.0706 86.7357 89.7172C86.7357 91.3638 88.0705 92.6987 89.7172 92.6987Z" fill="white"/>
    <path d="M29.2828 32.2641C30.9293 32.2641 32.2641 30.9294 32.2641 29.2828C32.2641 27.6363 30.9293 26.3016 29.2828 26.3016C27.6363 26.3016 26.3016 27.6363 26.3016 29.2828C26.3016 30.9294 27.6363 32.2641 29.2828 32.2641Z" fill="white"/>
    <path d="M89.7172 32.2643C91.3638 32.2643 92.6987 30.9295 92.6987 29.2828C92.6987 27.6362 91.3638 26.3013 89.7172 26.3013C88.0705 26.3013 86.7357 27.6362 86.7357 29.2828C86.7357 30.9295 88.0705 32.2643 89.7172 32.2643Z" fill="white"/>
    <path d="M29.2828 92.6987C30.9295 92.6987 32.2643 91.3638 32.2643 89.7172C32.2643 88.0706 30.9295 86.7357 29.2828 86.7357C27.6362 86.7357 26.3013 88.0706 26.3013 89.7172C26.3013 91.3638 27.6362 92.6987 29.2828 92.6987Z" fill="white"/>
    <path d="M18.2219 73.5425C19.8685 73.5425 21.2034 72.2076 21.2034 70.561C21.2034 68.9143 19.8685 67.5795 18.2219 67.5795C16.5752 67.5795 15.2404 68.9143 15.2404 70.561C15.2404 72.2076 16.5752 73.5425 18.2219 73.5425Z" fill="white"/>
    <path d="M100.778 51.4206C102.425 51.4206 103.76 50.0857 103.76 48.4391C103.76 46.7924 102.425 45.4576 100.778 45.4576C99.1315 45.4576 97.7966 46.7924 97.7966 48.4391C97.7966 50.0857 99.1315 51.4206 100.778 51.4206Z" fill="white"/>
    <path d="M48.439 21.2032C50.0855 21.2032 51.4203 19.8685 51.4203 18.2219C51.4203 16.5754 50.0855 15.2407 48.439 15.2407C46.7925 15.2407 45.4577 16.5754 45.4577 18.2219C45.4577 19.8685 46.7925 21.2032 48.439 21.2032Z" fill="white"/>
    <path d="M70.561 103.76C72.2076 103.76 73.5425 102.425 73.5425 100.778C73.5425 99.1315 72.2076 97.7966 70.561 97.7966C68.9143 97.7966 67.5795 99.1315 67.5795 100.778C67.5795 102.425 68.9143 103.76 70.561 103.76Z" fill="white"/>
    <path d="M72.5156 35.3286V29.75H89.25V46.4844H83.6719V40.5874L41.0385 83.2207L43.6679 85.8504L38.4089 91.1094L27.8906 80.5911L33.1496 75.3321L35.7793 77.9617L78.4126 35.3284L72.5156 35.3286Z" fill="white"/>
    <path d="M101.573 17.427C90.3347 6.18893 75.393 0 59.5 0C43.607 0 28.6653 6.18893 17.4272 17.427C6.18916 28.6651 0 43.607 0 59.5C0 75.393 6.18916 90.3347 17.4272 101.573C28.6653 112.811 43.607 119 59.5 119C75.393 119 90.3347 112.811 101.573 101.573C112.811 90.3349 119 75.393 119 59.5C119 43.607 112.811 28.6653 101.573 17.427ZM108.701 85.7593L105.509 83.9162C109.18 77.0204 111.248 69.3465 111.526 61.3591H115.247C114.957 70.1558 112.622 78.4426 108.701 85.7593ZM35.9248 104.062C35.9568 104.017 35.9898 103.972 36.0182 103.923C36.0517 103.865 36.0814 103.806 36.1081 103.746L53.6757 73.4509C53.7529 73.3179 53.8094 73.1792 53.8505 73.0381L57.6406 69.248V107.806C52.4288 107.61 47.3369 106.59 42.4795 104.763C41.5182 104.401 40.4461 104.887 40.0844 105.848C39.7228 106.809 40.209 107.882 41.17 108.244C46.4472 110.229 51.9795 111.329 57.6406 111.527V115.247C48.8425 114.957 40.5539 112.621 33.2361 108.699L35.9248 104.062ZM16.7293 82.0465C13.368 75.6766 11.4733 68.5942 11.1955 61.3594H49.752L45.8382 65.2729C45.742 65.3087 45.647 65.3508 45.5552 65.404L16.7293 82.0465ZM3.75315 61.3594H7.47167C7.7529 69.2471 9.81982 76.9723 13.5042 83.9087L10.2986 85.7595C6.37789 78.4426 4.04275 70.1558 3.75315 61.3594ZM10.2986 33.2407L13.4909 35.0841C9.82029 41.9796 7.7522 49.6532 7.47376 57.6406H3.75315C4.04275 48.8444 6.37789 40.5574 10.2986 33.2407ZM75.6027 27.8906H72.5156C71.4888 27.8906 70.6562 28.7232 70.6562 29.75V35.3286C70.6562 35.611 70.7225 35.8857 70.8427 36.1353L65.3273 45.6881C65.2913 45.7506 65.2601 45.8145 65.232 45.8791L61.3594 49.752V11.1944C66.8933 11.4024 72.2827 12.5361 77.4044 14.5796C78.358 14.9598 79.4397 14.4952 79.8204 13.5416C80.2009 12.5877 79.736 11.506 78.7824 11.1256C73.2206 8.90687 67.3677 7.6834 61.3594 7.47353V3.75292C70.1558 4.04251 78.4426 6.37789 85.7593 10.2986L75.6027 27.8906ZM57.6406 7.47376C49.6532 7.7522 41.9796 9.82029 35.0836 13.4909L33.2405 10.2988C40.5574 6.37789 48.8442 4.04275 57.6406 3.75292V7.47376ZM57.6406 11.1955V52.5608L36.9614 16.743C43.1796 13.4519 50.1968 11.4786 57.6406 11.1955ZM54.4202 54.4204L18.6072 33.7437C22.4629 27.644 27.6438 22.4629 33.7437 18.6072L54.4202 54.4204ZM52.5606 57.6406H11.1953C11.4784 50.1968 13.4516 43.1796 16.743 36.9614L52.5606 57.6406ZM33.1496 77.9615L34.4644 79.2763C34.8131 79.6249 35.2861 79.8209 35.7793 79.8209C36.2725 79.8209 36.7454 79.6249 37.0941 79.2763L79.7274 36.6429C80.2592 36.1112 80.4184 35.3114 80.1305 34.6167C79.8425 33.9217 79.1645 33.469 78.4124 33.469L74.375 33.4692V31.6094H87.3906V44.625H85.5312V40.5874C85.5312 39.8353 85.0783 39.1575 84.3836 38.8695C83.6886 38.5816 82.8888 38.741 82.3573 39.2726L39.7237 81.9059C38.9974 82.632 38.9974 83.8092 39.7237 84.5353L41.0385 85.8501L38.4089 88.4798L30.5202 80.5911L33.1496 77.9615ZM89.25 48.3438C90.2768 48.3438 91.1094 47.5112 91.1094 46.4844V43.3976L102.269 36.9544C105.627 43.316 107.525 50.4142 107.804 57.6406H69.248L73.0851 53.8036L82.8647 48.1573C83.1092 48.2757 83.3823 48.3438 83.6719 48.3438H89.25ZM43.6679 83.2207L43.7718 83.1169L43.6955 83.2482L43.6679 83.2207ZM61.3594 111.526C69.3468 111.248 77.0207 109.18 83.9164 105.509L85.7595 108.701C78.4428 112.622 70.1558 114.957 61.3594 115.247V111.526ZM61.3594 107.804V66.4392L82.0389 102.257C75.8204 105.548 68.8032 107.522 61.3594 107.804ZM64.5798 64.5798L100.393 85.2563C96.5371 91.356 91.3562 96.5371 85.2563 100.393L64.5798 64.5798ZM66.4392 61.3594H107.804C107.521 68.8032 105.548 75.8204 102.257 82.0386L66.4392 61.3594ZM111.526 57.6406C111.244 49.7629 109.172 42.0209 105.491 35.0938L108.701 33.2405C112.622 40.5572 114.957 48.8442 115.247 57.6404L111.526 57.6406ZM106.836 30.0238L91.1094 39.1034V29.75C91.1094 28.7232 90.2768 27.8906 89.25 27.8906H79.8966L85.2663 18.59C90.0893 21.6327 94.3036 25.4648 97.7987 29.9947C98.165 30.4693 98.7156 30.7183 99.2723 30.7183C99.6688 30.7183 100.069 30.5918 100.407 30.3308C101.22 29.7035 101.37 28.5358 100.743 27.7228C96.9506 22.8078 92.371 18.6558 87.1266 15.3677L88.9762 12.164C96.2003 16.6791 102.321 22.7997 106.836 30.0238ZM30.0236 12.1643L31.8667 15.3563C28.5791 17.423 25.4995 19.873 22.6862 22.6865C19.873 25.4997 17.423 28.5793 15.3563 31.8669L12.1643 30.024C16.6791 22.7997 22.7997 16.6791 30.0236 12.1643ZM12.1643 88.9762L16.9431 86.2174C16.9443 86.2167 16.9456 86.216 16.947 86.2153C16.9487 86.2143 16.9503 86.2132 16.9519 86.2122L26.0663 80.95C26.1349 81.3002 26.3046 81.6345 26.576 81.9059L37.0943 92.424C37.3725 92.7022 37.7172 92.8728 38.077 92.9378L33.7414 100.414C29.2638 97.5921 25.3014 94.0788 21.9467 89.9466C21.2994 89.1491 20.1282 89.0273 19.3312 89.6749C18.534 90.3222 18.4122 91.4931 19.0595 92.2903C22.6999 96.7747 27.006 100.582 31.8748 103.633L30.0194 106.833C22.7971 102.319 16.6781 96.1989 12.1643 88.9762ZM88.9764 106.836L87.1336 103.644C90.4209 101.577 93.5005 99.127 96.314 96.3138C99.1275 93.5005 101.577 90.4209 103.644 87.1333L106.836 88.9762C102.321 96.2003 96.2003 102.321 88.9764 106.836Z" fill="#2D2B29"/>
</svg>